<?xml version="1.0" encoding="utf-8" ?>
<svg baseProfile="tiny" height="1024px" version="1.2" width="1024px" xmlns="http://www.w3.org/2000/svg" xmlns:ev="http://www.w3.org/2001/xml-events" xmlns:xlink="http://www.w3.org/1999/xlink"><defs /><polygon fill="black" points="429.0,277.0 428.0,278.0 421.0,278.0 420.0,279.0 418.0,279.0 417.0,280.0 416.0,280.0 415.0,281.0 414.0,281.0 412.0,283.0 411.0,283.0 308.0,386.0 308.0,387.0 306.0,389.0 306.0,390.0 304.0,392.0 304.0,393.0 303.0,394.0 303.0,395.0 302.0,396.0 302.0,398.0 301.0,399.0 301.0,404.0 300.0,405.0 300.0,595.0 301.0,596.0 301.0,600.0 302.0,601.0 302.0,603.0 303.0,604.0 303.0,605.0 304.0,606.0 304.0,607.0 306.0,609.0 306.0,610.0 362.0,666.0 362.0,667.0 413.0,718.0 414.0,718.0 415.0,719.0 417.0,719.0 418.0,720.0 419.0,720.0 420.0,721.0 422.0,721.0 423.0,722.0 424.0,722.0 425.0,723.0 428.0,723.0 429.0,724.0 603.0,724.0 604.0,723.0 607.0,723.0 608.0,722.0 611.0,722.0 612.0,721.0 613.0,721.0 614.0,720.0 615.0,720.0 617.0,718.0 618.0,718.0 704.0,632.0 704.0,631.0 707.0,628.0 707.0,627.0 705.0,625.0 705.0,624.0 651.0,570.0 650.0,570.0 647.0,567.0 646.0,567.0 644.0,565.0 643.0,565.0 636.0,572.0 636.0,573.0 578.0,631.0 577.0,631.0 576.0,632.0 575.0,632.0 574.0,633.0 458.0,633.0 457.0,632.0 455.0,632.0 454.0,631.0 453.0,631.0 452.0,630.0 451.0,630.0 390.0,569.0 390.0,567.0 389.0,566.0 389.0,437.0 390.0,436.0 390.0,434.0 454.0,370.0 455.0,370.0 456.0,369.0 457.0,369.0 458.0,368.0 573.0,368.0 574.0,369.0 576.0,369.0 577.0,370.0 578.0,370.0 580.0,372.0 581.0,372.0 640.0,431.0 641.0,431.0 644.0,434.0 645.0,433.0 646.0,433.0 648.0,431.0 649.0,431.0 708.0,372.0 708.0,371.0 620.0,283.0 619.0,283.0 617.0,281.0 616.0,281.0 615.0,280.0 613.0,280.0 612.0,279.0 610.0,279.0 609.0,278.0 605.0,278.0 604.0,277.0" /><polygon fill="black" points="671.0,187.0 671.0,239.0 789.0,239.0 790.0,238.0 791.0,239.0 791.0,769.0 790.0,770.0 671.0,770.0 671.0,824.0 844.0,824.0 844.0,187.0" /><polygon fill="black" points="180.0,187.0 180.0,824.0 353.0,824.0 353.0,770.0 234.0,770.0 233.0,769.0 233.0,240.0 234.0,239.0 352.0,239.0 353.0,238.0 353.0,187.0" /></svg>